<svg width="344" height="344" viewBox="0 0 344 344" fill="none" xmlns="http://www.w3.org/2000/svg">
<rect width="344" height="344" rx="80" fill="#000000"/>
<path d="M153.156 183.7C153.156 201.649 138.57 216.2 120.578 216.2C102.586 216.2 88 201.649 88 183.7C88 165.751 102.586 151.2 120.578 151.2C138.57 151.2 153.156 165.751 153.156 183.7Z" fill="#FFFFFF"/>
<path d="M195.896 94.9553C196.051 94.391 196.566 94 197.152 94H255.696C256.557 94 257.181 94.8171 256.953 95.6447L214.666 249.045C214.511 249.609 213.996 250 213.41 250H154.866C154.006 250 153.381 249.183 153.61 248.355L195.896 94.9553Z" fill="#FFFFFF"/>
</svg>
