<svg xmlns="http://www.w3.org/2000/svg" version="1.1" xmlns:xlink="http://www.w3.org/1999/xlink" xmlns:svgjs="http://svgjs.dev/svgjs" width="60" height="60"><svg id="SvgjsSvg1042" xmlns="http://www.w3.org/2000/svg" version="1.1" viewBox="0 0 60 60">
  <!-- Generator: Adobe Illustrator 29.4.0, SVG Export Plug-In . SVG Version: 2.1.0 Build 152)  -->
  <defs>
    <style>
      .st0 {
        fill-rule: evenodd;
      }

      .st1 {
        fill: #fff;
      }
    </style>
  </defs>
  <rect class="st1" width="60" height="60"></rect>
  <path id="SvgjsPath1041" class="st0" d="M0,0h60v60H0V0ZM6.8,53.2V17.3h14.1c10.3,0,16.2,7.8,16.2,18s-5.9,17.9-16.2,17.9H6.8ZM14.4,46.2h6.5c5.7,0,8.6-5.1,8.6-10.9s-2.9-11.1-8.6-11.1h-6.5v22.1ZM41,45c2.5,0,4.5,1.8,4.5,4.3s-2.1,4.4-4.5,4.4-4.5-1.8-4.5-4.4,2-4.3,4.5-4.3Z"></path>
</svg><style>@media (prefers-color-scheme: light) { :root { filter: none; } }
@media (prefers-color-scheme: dark) { :root { filter: none; } }
</style></svg>