<svg preserveAspectRatio="none" width="100%" height="100%" overflow="visible" style="display: block;" viewBox="0 0 32 32" fill="none" xmlns="http://www.w3.org/2000/svg">
<g id="tabler-icon-at">
<path id="Vector" d="M21.3333 16C21.3333 17.4145 20.7714 18.771 19.7712 19.7712C18.771 20.7714 17.4145 21.3333 16 21.3333C14.5855 21.3333 13.229 20.7714 12.2288 19.7712C11.2286 18.771 10.6667 17.4145 10.6667 16C10.6667 14.5855 11.2286 13.229 12.2288 12.2288C13.229 11.2286 14.5855 10.6667 16 10.6667C17.4145 10.6667 18.771 11.2286 19.7712 12.2288C20.7714 13.229 21.3333 14.5855 21.3333 16ZM21.3333 16L21.3333 17.9998C21.3333 18.8839 21.6845 19.7317 22.3096 20.3568C22.9348 20.9819 23.7826 21.3331 24.6667 21.3331C25.5507 21.3331 26.3986 20.9819 27.0237 20.3568C27.6488 19.7317 28 18.8839 28 17.9998V15.9998C28.0033 13.4213 27.176 10.9103 25.6405 8.83872C24.1051 6.76719 21.9432 5.24533 19.4752 4.4986C17.0071 3.75186 14.3642 3.81996 11.9379 4.69281C9.51161 5.56566 7.43099 7.19684 6.00427 9.3447C4.57756 11.4926 3.88063 14.0429 4.01674 16.6178C4.15284 19.1927 5.11474 21.6553 6.75994 23.6408C8.40513 25.6263 10.6461 27.029 13.1509 27.6413C15.6557 28.2535 18.2911 28.0426 20.6667 27.0398" stroke="var(--stroke-0, #FFCD2E)" stroke-width="2" stroke-linecap="round" stroke-linejoin="round"/>
</g>
</svg>
